<?xml version="1.0" encoding="utf-8"?>
<!-- Generator: Adobe Illustrator 22.1.0, SVG Export Plug-In . SVG Version: 6.00 Build 0)  -->
<svg version="1.1" id="Layer_1" xmlns="http://www.w3.org/2000/svg" xmlns:xlink="http://www.w3.org/1999/xlink" x="0px" y="0px"
	 viewBox="0 0 310 110" style="enable-background:new 0 0 310 110;" xml:space="preserve">
<style type="text/css">
	.st0{fill:#045388;}
	.st1{fill:#FFFFFF;}
	.st2{fill:#C42032;}
	.st3{fill:#C0C2C4;}
	.st4{fill:#0778AE;}
	.st5{fill:#5E9841;}
</style>
<g id="FEMA_logo_2_">
	<polygon class="st0" points="127.1,76.4 133.5,76.4 133.5,37.1 127.1,37.1 127.1,33.2 159.9,33.2 159.9,43.4 155.9,43.4 
		155.9,37.1 141.1,37.1 141.1,54.7 152.6,54.7 152.6,49 156.5,49 156.5,65.4 152.6,65.4 152.6,58.6 141.1,58.6 141.1,76.4 
		147.6,76.4 147.6,80.3 127.1,80.3 	"/>
	<polygon class="st0" points="164,76.4 170.3,76.4 170.3,37.1 164,37.1 164,33.2 196.9,33.2 196.9,43.4 192.9,43.4 192.9,37.1 
		177.9,37.1 177.9,54.1 189.5,54.1 189.5,48.4 193.4,48.4 193.4,64.8 189.5,64.8 189.5,58.1 177.9,58.1 177.9,76.4 193.5,76.4 
		193.5,69.8 197.4,69.8 197.4,80.3 164,80.3 	"/>
	<polygon class="st0" points="201,76.4 207.4,76.4 207.4,37.1 201,37.1 201,33.2 216.1,33.2 216.1,37.1 231.2,68.7 246.1,37.1 
		246.1,33.2 261.5,33.2 261.5,37.1 255.1,37.1 255.1,76.4 261.5,76.4 261.5,80.3 240.9,80.3 240.9,76.4 247.4,76.4 247.4,44 
		247.3,44 230.3,80.3 228.6,80.3 211.9,44.7 211.7,44.7 211.7,76.4 218.1,76.4 218.1,80.3 201,80.3 	"/>
	<path class="st0" d="M265.6,80.3h12.3v-3.9h-4.3l4.3-12.6h15.7l4.5,12.6h-4.5v3.9H310v-3.9h-4.1L289.3,32h-4l-15.6,44.4h-4.1
		L265.6,80.3L265.6,80.3z M292,59.9h-12.6l6.1-17.3h0.2L292,59.9L292,59.9z"/>
	<path class="st1" d="M55,0.5C24.7,0.5,0.2,25.1,0.2,55.3s24.5,54.8,54.8,54.8s54.8-24.5,54.8-54.8S85.2,0.5,55,0.5L55,0.5z"/>
	<path class="st2" d="M88.3,35.7c-0.6,0.2-1.2,0.4-1.8,0.5c3.4,5.6,5.3,12.1,5.3,19.2c0,20.3-16.5,36.8-36.8,36.8
		c-20.3,0-36.8-16.5-36.8-36.8c0-7.3,2.1-14.1,5.8-19.9c-0.6-0.2-1.2-0.4-1.7-0.7c-3.7,5.9-5.9,13-5.9,20.6
		C16.2,76.7,33.5,94,54.9,94s38.6-17.3,38.6-38.6C93.7,48.1,91.7,41.4,88.3,35.7L88.3,35.7z"/>
	<path class="st2" d="M33.6,25.4C39.7,21,47,18.5,55,18.5c8.9,0,17.1,3.1,23.5,8.4c0.7-0.2,1.4-0.4,2.1-0.6
		c-6.8-6.1-15.8-9.7-25.6-9.7c-8.8,0-16.9,3-23.4,7.9c0.3,0.1,0.6,0.2,1,0.4C32.9,25.1,33.2,25.2,33.6,25.4L33.6,25.4z"/>
	<path class="st3" d="M55,106.7c-28.3,0-51.4-23-51.4-51.4S26.6,3.9,55,3.9s51.4,23,51.4,51.4S83.4,106.7,55,106.7L55,106.7z
		 M55,0.5C24.7,0.5,0.2,25.1,0.2,55.3s24.5,54.8,54.8,54.8s54.8-24.5,54.8-54.8S85.2,0.5,55,0.5L55,0.5z"/>
	<path class="st0" d="M41.8,44.3c-0.8-0.4-1.5-0.8-2.2-1.5c-2.4-2.1-2.9-4.4-2.2-7c0.4-1.5,1.1-2.3,0.8-3.9
		c-0.2-0.9-0.8-1.7-1.5-2.3c-1.5-1.5-3.4-2.4-6.2-3.4c-1.7-0.6-6.7-2.1-8.9-4.1c-0.5,1.4,0.5,3.4,1.8,3.6c-1.1,0.1-2.1,0.7-2.5,1.3
		c0.8,1,2.5,2,3.9,2c-0.7,0.4-1.4,1.3-1.7,1.8c1.2,0.7,3.1,1.2,4.6,1.1c-0.6,0.5-1.1,1.1-1.5,1.7c1,0.5,2.9,1.1,4.8,1.2
		c-0.7,0.4-1.7,1.5-2.1,2.2c1,0.5,3.3,0.7,4.6,0.9c-1,0.5-2,1.5-2.6,2.5c1,0.5,2.9,1,4.5,1c-0.8,0.7-1.2,1.6-1.5,2.5
		c1.2,0.2,2.4,0.2,3.8,0.1c-0.9,1.1-1.2,2.6-1.4,3.6c1.2-0.1,2.7-0.3,3.8-1c-0.2,0.9-0.2,2.1,0.2,2.9c0.5-0.1,1-0.3,1.5-0.6
		C41.9,47.4,41.9,45.8,41.8,44.3L41.8,44.3z"/>
	<path class="st0" d="M89,24.8c-2.2,2-5.6,2.5-9.3,3.7c-2.7,0.9-4.5,1.4-7,3.4c-0.7,0.5-1.4,1.4-1.3,2.8c0.1,1.6,0.4,2.3,0.4,4.5
		c0,1.5-0.5,2.9-1.2,3.6c-0.7,0.8-1.6,1.5-2.4,1.9C68.1,46,68,47.4,67.9,49c0.6,0.3,1.3,0.6,1.8,0.7c0.4-0.8,0.4-2,0.2-2.9
		c1.1,0.7,2.6,0.9,3.8,1c-0.1-1-0.5-2.5-1.4-3.6c1.4,0.2,2.7,0.2,3.8-0.1c-0.3-0.8-0.8-1.7-1.5-2.5c1.5,0.1,3.4-0.5,4.5-1
		c-0.6-1-1.6-2-2.6-2.5c1.4-0.1,3.7-0.4,4.8-0.9c-0.5-0.7-1.5-1.9-2.2-2.2c1.8-0.1,3.7-0.8,4.8-1.2c-0.4-0.6-0.9-1.2-1.5-1.7
		c1.7-0.1,3.4-0.4,4.6-1.1c-0.2-0.5-1.1-1.4-1.7-1.8C88.9,28.1,89,26.3,89,24.8L89,24.8z"/>
	<path class="st0" d="M73.5,28.8C68.2,25.1,61.9,23,55,23c-6.2,0-12.1,1.8-17.1,4.8c1.3,1,2,2.1,2.3,3.1c0.2,1,0.3,2.1-0.3,3.8
		c-0.6,1.8-0.9,3.6,0.4,5.5c1.3,1.8,3,2.7,4.5,2.9l0,0c1.8-0.3,3.9-0.6,5.9-0.8l0,0c0.2-0.9,1.1-1.6,1.8-2.3
		c1.1-0.9,0.9-1.7,0.7-2.3c-0.2-0.5-0.7-0.8-1.2-1.2c-0.5-0.3-2.4-0.5-2.4,0.8c-0.3-0.4-0.5-1-0.4-1.8c0.2-1.1,2-1.3,2.4-1.3
		c-0.4-0.3-0.1-0.7,0.7-1c0.9-0.2,1.8-0.3,2.6-0.3c1.7,0.1,2,0.5,2.9,1.2c1.1,1,2.4,1.2,3,0.7c-0.4,0.9-1.7,1.4-2.4,1.2
		c0.4,1.2,0.5,2.3,0.7,3.6c0.1,0.6,0.2,1.6,0.4,2.4c2.3,0.2,4.6,0.5,6.7,0.9l0,0c0.8-0.2,1.7-0.7,2.5-1.7c0.8-0.8,1.4-2,1.1-4.7
		c-0.1-0.8-0.5-2.7-0.4-3.7C69.4,31.3,71,29.8,73.5,28.8L73.5,28.8z"/>
	<path class="st0" d="M52,34.5c0.3,0.2,0.5,0.3,0.6,0.2c0,0.1,0.1,0.1,0.1,0.2c0.1,0.1,0.1,0.1,0.1,0.2c0.1-0.1,0.5-0.2,0.9-0.4
		c0.4-0.1,0.8-0.3,0.8-0.3C53,34.2,52.8,34.6,52,34.5L52,34.5z"/>
	<path class="st4" d="M54.1,60.1l-0.7-0.3L53,58.8l-1-0.4l-1.1-1l-0.7,0.7l-1,0.2l-0.5,0.8L48.1,60l-1,0.5l-0.7,1.2L46,62.2
		l-0.7,0.5l-0.4-0.4l-0.4,0.4l-0.5,1c-0.3-0.7-0.4-1.2-0.5-2.4c-0.2-2.1-0.3-4.8-0.5-7.5c3.5-0.8,8-1.2,11.5-1.3v8.3
		C54.4,60.6,54.3,60.5,54.1,60.1L54.1,60.1z"/>
	<path class="st5" d="M54.6,64.1H44.2c0.2,0.3,0.4,0.6,0.5,0.9c0.8,1.1,1.8,1.8,3.1,2.3c1.8,0.5,3,1,3.9,1.2l1,0.3
		c0.8,0.2,1.4,0.7,1.8,1.1V64.1L54.6,64.1z"/>
	<path class="st0" d="M65.6,60.1c0.3-0.2,0.6-0.5,1.1-0.7c0.1-1,0.1-2,0.2-3.1c-0.1,0.1-0.2,0.2-0.4,0.3c-0.5,0.4-1.1,0.9-2.2,0.9
		c-1,0-1.7-0.4-2.2-0.7c-0.4-0.3-0.8-0.5-1.3-0.5s-1.1,0.3-1.5,0.6c-0.5,0.4-1.2,0.7-2,0.7c-0.8,0-1.4-0.2-1.8-0.5v2.9
		c0.1,0.1,0.2,0.1,0.3,0.2c0.5,0.3,0.9,0.5,1.5,0.5c0.4,0,0.8-0.2,1.2-0.5c0.6-0.4,1.3-0.8,2.3-0.8c0.9,0,1.5,0.4,2,0.7
		c0.5,0.3,0.9,0.5,1.5,0.5C64.8,60.7,65.1,60.4,65.6,60.1L65.6,60.1z"/>
	<path class="st0" d="M57.2,66.7c-0.8,0-1.4-0.2-1.8-0.5v3.6c0.4-0.4,1-0.8,1.8-1.1l1-0.3c0.8-0.3,2-0.7,3.9-1.2
		c0.5-0.2,1-0.4,1.5-0.7c-0.7-0.1-1.1-0.4-1.5-0.7c-0.4-0.3-0.8-0.5-1.3-0.5c-0.5,0-1.1,0.3-1.5,0.6C58.6,66.3,58,66.7,57.2,66.7
		L57.2,66.7z"/>
	<path class="st4" d="M65.6,55.6c0.4-0.3,0.8-0.6,1.3-0.7c0-0.4,0.1-0.8,0.1-1.1c-3.5-0.8-8-1.2-11.5-1.3v3.1
		c0.1,0.1,0.2,0.1,0.3,0.2c0.5,0.3,0.9,0.5,1.5,0.5c0.4,0,0.8-0.2,1.2-0.5c0.6-0.4,1.3-0.8,2.3-0.8c0.9,0,1.5,0.4,2,0.7
		c0.5,0.3,0.9,0.5,1.5,0.5C64.8,56.2,65.1,55.9,65.6,55.6L65.6,55.6z"/>
	<path class="st4" d="M55.4,61.6v3c0.1,0.1,0.2,0.1,0.3,0.2c0.5,0.3,0.9,0.5,1.5,0.5c0.4,0,0.8-0.2,1.2-0.5c0.6-0.4,1.3-0.8,2.3-0.8
		c0.9,0,1.5,0.4,2,0.7c0.5,0.3,0.9,0.5,1.5,0.5c0.5,0,0.8-0.2,1.1-0.4c0.7-1,1.1-2.2,1.1-3.6c0-0.1,0-0.1,0-0.2l-0.1,0.1
		c-0.5,0.4-1.1,0.9-2.2,0.9c-1,0-1.7-0.4-2.2-0.7c-0.4-0.3-0.8-0.5-1.3-0.5s-1.1,0.3-1.5,0.6c-0.5,0.4-1.2,0.7-2,0.7
		C56.4,62.1,55.9,61.9,55.4,61.6L55.4,61.6z"/>
	<path class="st0" d="M43,52.9c-0.2-3-0.3-6.1-0.4-8.5c3.7-0.8,8.6-1.4,12.4-1.4s8.7,0.5,12.4,1.4c-0.1,2.4-0.2,5.5-0.4,8.5
		c-3.4-0.7-8.1-1.3-12-1.3C51.1,51.6,46.5,52.2,43,52.9L43,52.9z"/>
	<polygon class="st1" points="45.4,46.5 45.5,45.8 44.9,45.5 45.6,45.5 45.7,44.8 46,45.4 46.6,45.3 46.1,45.7 46.4,46.3 45.8,45.9 
			"/>
	<polygon class="st1" points="49.5,45.9 48.9,45.5 48.4,46 48.6,45.4 48,45.1 48.7,45 48.7,44.4 49,45 49.6,44.9 49.2,45.3 	"/>
	<polygon class="st1" points="52.5,45.7 52,45.3 51.5,45.8 51.7,45.1 51.1,44.7 51.7,44.7 51.9,44.1 52.1,44.7 52.7,44.7 52.2,45 	
		"/>
	<polygon class="st1" points="55.5,45.6 55,45.2 54.5,45.6 54.7,45 54.2,44.6 54.8,44.6 55,44 55.2,44.6 55.8,44.6 55.3,45 	"/>
	<polygon class="st1" points="64.1,45.9 63.6,46.3 63.9,45.7 63.4,45.3 64.1,45.4 64.3,44.8 64.4,45.5 65.1,45.5 64.4,45.8 
		64.6,46.5 	"/>
	<polygon class="st1" points="60.9,45.3 60.3,44.9 61,45 61.2,44.4 61.3,45 62,45.1 61.4,45.4 61.6,46 61.1,45.5 60.6,45.9 	"/>
	<polygon class="st1" points="57.8,45 57.2,44.7 57.9,44.7 58.1,44.1 58.3,44.7 58.9,44.7 58.4,45.1 58.5,45.8 58.1,45.3 57.5,45.7 
			"/>
	<polygon class="st1" points="45.8,51.3 46,50.7 45.4,50.4 46.1,50.3 46.1,49.7 46.4,50.3 47,50.1 46.5,50.6 46.8,51.2 46.3,50.9 	
		"/>
	<polygon class="st1" points="49.8,50.9 49.2,50.5 48.7,51 48.9,50.3 48.3,50 49,50 49.1,49.3 49.3,49.9 50,49.9 49.5,50.3 	"/>
	<polygon class="st1" points="52.7,50.6 52.2,50.3 51.7,50.7 51.9,50 51.3,49.7 52,49.7 52.1,49.1 52.3,49.7 53,49.6 52.4,50 	"/>
	<polygon class="st1" points="55.6,50.6 55.1,50.1 54.6,50.6 54.8,50 54.3,49.6 54.9,49.6 55.1,49 55.3,49.6 55.9,49.6 55.4,50 	"/>
	<polygon class="st1" points="63.9,50.9 63.4,51.2 63.7,50.6 63.2,50.2 63.8,50.3 64.1,49.7 64.1,50.4 64.8,50.4 64.2,50.7 
		64.4,51.4 	"/>
	<polygon class="st1" points="60.7,50.3 60.2,49.9 60.9,50 61.1,49.3 61.2,50 61.9,50 61.3,50.3 61.5,51 61,50.5 60.4,50.9 	"/>
	<polygon class="st1" points="57.8,50 57.2,49.6 57.9,49.7 58.1,49.1 58.3,49.7 58.9,49.7 58.3,50.1 58.5,50.7 58,50.3 57.5,50.6 	
		"/>
	<polygon class="st1" points="47.3,48.4 47.4,47.8 46.8,47.5 47.5,47.5 47.6,46.8 47.9,47.4 48.5,47.3 48,47.7 48.3,48.3 47.7,47.9 
			"/>
	<polygon class="st1" points="44.4,48.9 44.5,48.2 43.9,48 44.6,47.9 44.6,47.2 44.9,47.8 45.6,47.7 45.1,48.2 45.4,48.7 44.8,48.4 
			"/>
	<polygon class="st1" points="51.2,48.1 50.7,47.7 50.2,48.1 50.4,47.5 49.8,47.2 50.5,47.1 50.6,46.5 50.8,47.1 51.5,47 50.9,47.4 
			"/>
	<polygon class="st1" points="54.2,47.9 53.6,47.5 53.1,47.9 53.3,47.3 52.7,46.9 53.4,46.9 53.6,46.3 53.7,46.9 54.4,46.9 
		53.9,47.3 	"/>
	<polygon class="st1" points="57,47.9 56.5,47.5 56,47.9 56.3,47.3 55.7,46.9 56.3,46.9 56.6,46.3 56.7,47 57.4,46.9 56.8,47.3 	"/>
	<polygon class="st1" points="65.3,48.4 64.7,48.8 65.1,48.2 64.5,47.7 65.2,47.9 65.5,47.3 65.6,47.9 66.2,48 65.6,48.3 65.7,49 	
		"/>
	<polygon class="st1" points="62.1,47.8 61.6,47.3 62.3,47.4 62.5,46.8 62.6,47.5 63.3,47.5 62.6,47.8 62.8,48.5 62.4,48 61.8,48.4 
			"/>
	<polygon class="st1" points="59.2,47.5 58.7,47.1 59.3,47.1 59.6,46.5 59.7,47.2 60.3,47.2 59.7,47.5 59.9,48.1 59.4,47.7 
		58.9,48.1 	"/>
	<path class="st0" d="M97.9,40.8c1.9-0.8,2.8-3,2-4.8c-0.8-1.8-3-2.6-4.9-1.8c-1.9,0.8-2.8,3-2,4.8C93.8,40.9,96,41.7,97.9,40.8
		L97.9,40.8z M95.6,35.7c1.5-0.7,3.2-0.4,3.7,0.7c0.4,1-0.5,2.5-2,3.1c-1.5,0.7-3.3,0.4-3.7-0.7C93.1,37.8,94.1,36.3,95.6,35.7
		L95.6,35.7z"/>
	<polygon class="st0" points="95.2,45.8 94.4,43 94.9,42.8 95.1,43.6 101.2,42.1 101,41.3 101.4,41.2 102.6,45.5 102.9,45.5 103,46 
		101.3,46.5 101.1,45.9 101.9,45.7 101.4,43.5 98.9,44.1 99.3,45.8 100,45.6 100.2,46.2 98.1,46.7 97.9,46.2 98.7,46 98.2,44.3 
		95.4,45 95.6,45.7 	"/>
	<path class="st0" d="M10,38.1L9.8,39l3.9,1.2c1.2,0.4,1.8,1,2,2c0.1,0.5,0.1,1.1-0.1,1.6c-0.5,1.7-1.8,2.5-3.2,2.1l-4.2-1.2
		l-0.2,0.8l-0.4-0.1l0.9-2.9l0.4,0.1l-0.2,0.8l3.9,1.2c1.1,0.3,1.6,0.3,2-0.2c0.2-0.2,0.4-0.5,0.5-0.8c0.4-1.2-0.2-2.2-1.4-2.6
		l-3.9-1.2l-0.2,0.9l-0.5-0.1L9.5,38L10,38.1L10,38.1z"/>
	<path class="st0" d="M16.9,39.8c-0.2,0.4-0.6,0.5-1,0.4c-0.4-0.2-0.5-0.6-0.4-1c0.2-0.4,0.6-0.5,1-0.4C16.9,39,17.1,39.4,16.9,39.8
		L16.9,39.8z"/>
	<path class="st0" d="M18.3,36.7L18,37.2l-1.7-1l0.3-0.5l0.7,0.4c0.6-0.2,0.9-0.5,1.1-1c0.4-0.6,0.2-1.2-0.3-1.5
		c-0.4-0.2-0.9-0.1-2,0.4c-1.1,0.6-1.2,0.7-1.7,0.8c-0.4,0.1-0.8,0-1.2-0.2c-1.1-0.6-1.3-1.7-0.7-2.9c0.2-0.4,0.4-0.7,0.8-0.9
		L13,30.7l0.3-0.5l1.6,0.9l-0.3,0.5l-0.7-0.4c-0.5,0.2-0.7,0.5-0.9,0.8c-0.3,0.5-0.1,1.1,0.3,1.3c0.4,0.2,0.7,0.1,1.8-0.5
		c0.5-0.3,0.8-0.5,1-0.5c0.3-0.1,0.6-0.2,1-0.2c0.4,0,0.8,0.1,1.1,0.3c1.1,0.6,1.4,1.8,0.8,2.9c-0.3,0.5-0.7,0.9-1.1,1.2L18.3,36.7
		L18.3,36.7z"/>
	<path class="st0" d="M21.1,31.7c0,0.4-0.3,0.7-0.7,0.7s-0.7-0.3-0.7-0.7S20,31,20.4,31S21.1,31.3,21.1,31.7L21.1,31.7z"/>
	<polygon class="st0" points="38,17.7 33.4,20.1 33.2,19.7 33.9,19.3 31,13.7 30.3,14.1 30.1,13.7 34.1,11.6 33.9,11.3 34.5,11.1 
		35.3,12.6 34.8,12.9 34.4,12.2 32.4,13.2 33.5,15.5 35.1,14.7 34.8,14 35.3,13.8 36.3,15.7 35.7,15.9 35.4,15.3 33.8,16 35.1,18.5 
		37.2,17.4 36.8,16.6 37.3,16.4 	"/>
	<path class="st0" d="M42.4,16.1l-3,1l-0.1-0.4l0.8-0.2l-2-5.9l-0.8,0.2l-0.1-0.4l3.1-1.1c1.3-0.4,2.4,0.1,2.8,1.2
		c0.4,1.1-0.3,2.4-1.5,2.8c-0.2,0.1-0.3,0.1-0.6,0.1l-0.2-0.5c0.1,0,0.2-0.1,0.3-0.1c0.7-0.2,1-0.9,0.6-1.8c-0.3-1-0.9-1.4-1.6-1.1
		l-0.6,0.2l1.9,5.8l0.9-0.3L42.4,16.1L42.4,16.1z"/>
	<path class="st0" d="M51.3,13.7l-0.5,0.1L47,7.3l-0.7,0.1l-1.5,7.4l-0.7,0.1l0.1,0.5l2.2-0.4l-0.1-0.5l-0.8,0.2l0.4-1.8l2.6-0.5
		l1,1.6l-0.8,0.1l0.1,0.5l2.6-0.5L51.3,13.7L51.3,13.7z M46,12.1l0.6-2.9l1.5,2.5L46,12.1L46,12.1z"/>
	<path class="st0" d="M58.8,13.7h-0.5c-0.2,0-0.4-0.1-0.6-0.5l-1.5-2.4c1-0.3,1.5-1,1.5-1.9c0-0.6-0.2-1.1-0.5-1.4
		C56.8,7.1,56.3,7,55.4,7h-3.2v0.5H53v6.3h-0.8v0.5h3v-0.5h-0.8V11h0.3l1.6,2.6c0.4,0.6,0.5,0.7,1.1,0.7h1.4L58.8,13.7L58.8,13.7z
		 M54.4,7.5h0.7c0.8,0,1.2,0.5,1.2,1.4c0,0.9-0.5,1.5-1.2,1.5h-0.7L54.4,7.5L54.4,7.5z"/>
	<polygon class="st0" points="63.8,15 60.3,14.4 60.4,14 61.5,14.1 62.5,8.1 60.6,7.8 60.4,8.7 59.9,8.6 60.2,6.8 60.7,6.9 
		60.7,7.2 65.8,8 65.9,7.7 66.4,7.8 66.2,9.7 65.6,9.6 65.7,8.7 63.8,8.4 62.8,14.4 63.9,14.6 	"/>
	<polygon class="st0" points="74,18.4 71,17.3 71.1,16.8 72,17.2 73.7,12.8 69.5,16.8 68.9,11.1 67.3,15.3 68.2,15.7 68,16.1 
		65.6,15.2 65.8,14.8 66.7,15.1 68.9,9.3 68.1,8.9 68.2,8.5 70.1,9.2 70.6,14.9 74.6,10.9 76.6,11.7 76.4,12.1 75.6,11.8 73.3,17.7 
		74.2,18 	"/>
	<polygon class="st0" points="79.3,21.9 74.9,19.1 75.2,18.7 75.9,19.2 79.3,13.9 78.6,13.4 78.8,13.1 82.6,15.4 82.8,15.2 
		83.3,15.5 82.3,17 81.8,16.7 82.3,16 80.4,14.8 79,17 80.4,17.9 80.8,17.3 81.4,17.6 80.2,19.4 79.7,19.1 80.1,18.4 78.6,17.5 
		77.1,19.8 79.2,21 79.6,20.4 80.1,20.7 	"/>
	<path class="st0" d="M29.5,22.2l-0.7,0.5l-3.6-4.8l0.8-0.5c1-0.8,2.7-0.3,3.7,1C30.7,19.7,30.6,21.4,29.5,22.2L29.5,22.2z
		 M30.9,17.5c-1.2-1.6-3.4-2-5.1-0.7l-2.7,2l0.3,0.4l0.7-0.5l3.7,5.1c0.2,0.1,0.4,0.1,0.5,0.2l1.8-1.4c0.9-0.7,1.3-1.3,1.5-2.3
		C31.8,19.3,31.5,18.2,30.9,17.5L30.9,17.5z"/>
	<path class="st0" d="M88.6,20.4l-0.3,0.4l0.7,0.6l-3.1,3.4l0.8-6.1L85,17.2l-0.3,0.4l0.6,0.5l-0.1,0.7l-3.9,4.2l-0.7-0.6l-0.3,0.4
		l1.8,1.7l0.3-0.4l-0.7-0.6l3.2-3.5l-0.7,5.6c0.7-0.2,1.4-0.4,2.1-0.6c0.1,0,0.1-0.1,0.2-0.1l2.7-3l0.7,0.6l0.3-0.4L88.6,20.4
		L88.6,20.4z"/>
	<path class="st0" d="M96,28.3l-0.2,0.2l-3.1-4.1l0.2-0.2l-0.4-0.5L91,24.9l0.4,0.5l0.7-0.5l1.1,1.5L88.3,30l-0.2-0.4
		c-0.1,0.1-0.3,0.1-0.4,0.2l1.8,2.4l0.4-0.3l-0.7-0.8l4.9-3.7l1.1,1.5l-0.7,0.5l0.4,0.5l1.5-1.1L96,28.3L96,28.3z"/>
	<path class="st0" d="M64,103.3l-0.6,0.1l-0.4-1.9l0.6-0.1l0.2,0.8c0.5,0.3,1,0.4,1.5,0.2c0.7-0.1,1.1-0.7,1-1.2
		c-0.1-0.5-0.5-0.8-1.6-1.2c-1.2-0.4-1.4-0.5-1.7-0.8c-0.4-0.2-0.6-0.7-0.7-1.1C62.1,97,62.7,96,64,95.7c0.4-0.1,0.8-0.1,1.2,0
		l-0.1-0.3l0.6-0.1l0.4,1.8l-0.6,0.1l-0.2-0.7c-0.5-0.2-0.8-0.2-1.2-0.2c-0.5,0.1-0.9,0.6-0.8,1.1c0.1,0.4,0.4,0.7,1.5,1.1
		c0.5,0.2,0.9,0.4,1.1,0.4c0.3,0.1,0.5,0.3,0.8,0.5c0.3,0.3,0.5,0.6,0.5,1c0.2,1.2-0.4,2.3-1.7,2.6c-0.6,0.1-1.1,0.1-1.7-0.1
		L64,103.3L64,103.3z"/>
	<polygon class="st0" points="75.1,99.8 70.3,101.7 70.1,101.3 70.9,100.9 68.6,95.1 67.8,95.4 67.7,95 71.9,93.3 71.7,93 
		72.3,92.9 72.9,94.5 72.4,94.7 72.1,93.9 70,94.8 70.9,97.2 72.6,96.6 72.3,95.8 72.8,95.6 73.6,97.6 73,97.9 72.8,97.1 71.1,97.8 
		72.2,100.3 74.4,99.4 74.1,98.7 74.6,98.5 	"/>
	<path class="st0" d="M82.4,95.4c-0.6,0.8-1.1,1.2-1.8,1.6c-2,1.2-4.2,0.7-5.3-1.1c-1.1-1.8-0.5-4,1.3-5.2c0.6-0.4,1.1-0.5,1.8-0.7
		l-0.2-0.4l0.5-0.3l1,1.7l-0.5,0.3l-0.4-0.6c-0.8-0.1-1.1,0-1.6,0.4c-1.3,0.8-1.5,2.4-0.6,4c0.9,1.5,2.6,2.1,3.9,1.3
		c0.5-0.3,0.7-0.6,1-1.1l-0.4-0.7l0.5-0.3L82.4,95.4L82.4,95.4z"/>
	<path class="st0" d="M85.7,84.1L85,84.7l2.8,3c0.8,0.9,1,1.8,0.7,2.7c-0.2,0.5-0.5,1-1,1.3c-1.3,1.2-2.8,1.2-3.8,0.1l-3-3.3
		l-0.6,0.5l-0.3-0.4l2.3-2.1l0.3,0.4l-0.6,0.5l2.7,3c0.8,0.8,1.2,1.1,1.8,0.9c0.3-0.1,0.6-0.2,0.8-0.5c1-0.9,1-2,0.1-3l-2.7-3
		L84,85.7l-0.3-0.4l1.8-1.7L85.7,84.1L85.7,84.1z"/>
	<polygon class="st0" points="97.9,77.8 96.5,80.5 96.1,80.2 96.5,79.5 91,76.5 90.6,77.2 90.2,77 91.6,74.3 92,74.5 91.6,75.3 
		97.2,78.3 97.5,77.5 	"/>
	<polygon class="st0" points="100.7,71.2 99.5,74.5 99.1,74.3 99.4,73.4 93.7,71.2 93.1,73 93.9,73.3 93.7,73.9 92,73.2 92.2,72.6 
		92.5,72.7 94.3,67.9 94,67.8 94.2,67.3 96,67.9 95.7,68.4 94.9,68.2 94.3,69.9 100,72 100.3,71.1 	"/>
	<polygon class="st0" points="102.7,63.2 102.1,66.2 101.6,66.1 101.8,65.3 98.8,64.7 95.2,66.2 95.1,66.9 94.6,66.8 95.2,63.8 
		95.7,63.9 95.5,64.7 98.2,63.6 96.1,61.7 95.9,62.6 95.4,62.6 95.9,60.1 96.4,60.1 96.3,60.9 98.8,63.3 102,63.9 102.2,63.1 	"/>
	<path class="st0" d="M87.8,81.6l0.4-0.5c0.5-0.6,1.1-0.7,1.8-0.2c0.7,0.5,0.9,1.3,0.4,1.9l-0.4,0.5L87.8,81.6L87.8,81.6z
		 M95.3,81.7l-0.2,0.4c-0.1,0.2-0.3,0.2-0.8,0.2l-2.9-0.2c0.4-1,0.2-1.8-0.7-2.4c-0.5-0.4-1-0.5-1.4-0.4c-0.5,0.1-1,0.4-1.5,1.2
		l-1.9,2.6l0.4,0.3l0.5-0.7l5.1,3.7l-0.5,0.7l0.4,0.3l1.8-2.4l-0.4-0.3l-0.5,0.7l-2.2-1.7l0.2-0.2l3,0.2c0.7,0.1,0.8,0,1.2-0.5
		l0.8-1.1L95.3,81.7L95.3,81.7z"/>
	<polygon class="st0" points="8.8,69.9 8.1,67 8.6,66.8 8.8,67.7 11.5,67 10.7,63.5 7.9,64.2 8.1,65 7.7,65.1 6.9,62.2 7.4,62 
		7.6,62.9 13.7,61.4 13.5,60.5 13.9,60.4 14.6,63.4 14.2,63.5 14,62.7 11.3,63.4 12.1,66.8 14.9,66.1 14.6,65.4 15.1,65.2 
		15.8,68.2 15.4,68.3 15.2,67.6 9.1,69 9.3,69.8 	"/>
	<path class="st0" d="M15.4,76.8c1.9-0.9,2.7-3,1.9-4.8c-0.8-1.8-3-2.6-4.9-1.7c-1.9,0.9-2.7,3-1.9,4.8
		C11.3,76.8,13.4,77.6,15.4,76.8L15.4,76.8z M13,71.6c1.5-0.7,3.2-0.4,3.7,0.6c0.5,1-0.5,2.5-2,3.1c-1.5,0.7-3.3,0.4-3.7-0.6
		C10.5,73.8,11.5,72.3,13,71.6L13,71.6z"/>
	<polygon class="st0" points="18.1,87.1 16.2,84.5 16.6,84.3 17.1,85 20.9,82.2 15.2,83.4 17.9,78.2 14.2,80.9 14.7,81.6 14.3,81.9 
		12.9,79.9 13.2,79.6 13.7,80.3 18.9,76.6 18.3,75.9 18.7,75.6 19.8,77.2 17.3,82.3 22.7,81.2 24,82.9 23.6,83.2 23,82.4 18,86.1 
		18.5,86.9 	"/>
	<polygon class="st0" points="23.8,92.7 20,89.2 20.3,88.8 20.9,89.4 25.2,84.8 24.6,84.3 24.9,83.9 28.2,86.9 28.4,86.7 28.8,87.1 
		27.7,88.4 27.2,88 27.8,87.4 26,85.9 24.3,87.8 25.6,88.9 26.1,88.4 26.6,88.8 25.1,90.4 24.7,90 25.2,89.4 23.9,88.2 22.1,90.3 
		23.8,91.9 24.3,91.3 24.8,91.6 	"/>
	<polygon class="st0" points="30.3,97.1 26,94.3 26.3,93.9 27,94.4 30.5,89.2 29.8,88.7 30,88.3 32.6,90 32.3,90.4 31.6,90 28.2,95 
		30.1,96.3 30.6,95.7 31.1,96 	"/>
	<path class="st0" d="M38.2,100.5l-0.4-0.2l0.4-7.5l-0.6-0.3l-5.5,5.2l-0.6-0.3l-0.2,0.4l2.1,1l0.2-0.4L32.8,98l1.4-1.3l2.4,1.1
		l-0.1,1.9l-0.7-0.3l-0.2,0.4l2.4,1.1L38.2,100.5L38.2,100.5z M34.7,96.3l2.1-2l-0.2,2.9L34.7,96.3L34.7,96.3z"/>
	<polygon class="st0" points="45.7,103.1 45,102.9 42.5,96.9 41.4,101.5 42.3,101.7 42.1,102.1 39.8,101.5 39.8,101.1 40.7,101.3 
		42.1,95.7 41.9,95.1 41.1,94.9 41.2,94.5 43.3,95 45.6,100.7 46.7,96.3 45.8,96.1 45.9,95.6 48.3,96.2 48.2,96.6 47.3,96.4 	"/>
	<path class="st0" d="M54.8,100.1c-0.1,1.7-1.1,3-2.5,2.9l-0.9-0.1l0.2-6l1,0.1C53.8,97.1,54.9,98.5,54.8,100.1L54.8,100.1z
		 M52.8,96.4l-3.4-0.1v0.5h0.8l-0.2,6.3l0,0h-0.8v0.5l3.4,0.1l0,0l0,0c1.1,0.1,1.8-0.2,2.6-0.8c0.8-0.7,1.2-1.6,1.2-2.6
		C56.4,98.2,54.9,96.5,52.8,96.4L52.8,96.4z"/>
	<path class="st0" d="M89.8,59.8l-2.7,0.8l0.6,0.2l-1,0.6c0.1-0.5,0.2-1.1,0.3-1.7l1.5-1.2l0.1,0.7l1.7-2.3l-2.6,1.2l0.7,0.2l-1.2,1
		c0.1-0.7,0.1-1.4,0.2-2l1.4-1.6l0.1,0.7l1.4-2.4l-2.4,1.5l0.7,0.1l-1.1,1.2c0-0.4,0-0.8,0-1.3c0-3.2-0.5-6.4-1.4-9.3
		c-1.5,0.1-2.9-0.4-3.6-0.5c1.9,1.1,2.6,2.3,2.8,3.7c-1.5,0.4-3.5-0.2-4.6-1c1.1,1,1.7,2.4,1.8,3.9c-1.5,0.1-3-0.7-4-1.7
		c0.7,0.8,1.5,2.7,1.3,4c-1.3-0.1-2.8-1-3.6-2c0.7,1.5,1,2.7,1,4.1c-1.3-0.2-2.3-0.6-3.4-1.7c0.5,1.4,0.8,2.8,0.7,3.9
		c-1.5-0.5-2.5-1.1-3.3-2.5c0.4,1.2,0.7,2.9,0.4,3.8c-1.2-0.4-2.1-1.1-2.7-2.4c0.7,1.4,0.5,3,0.4,3.7c-0.5-0.1-1.2-0.5-1.6-0.9
		c0,0.2-0.1,0.5-0.1,0.7c-0.1,0.9-0.2,1.8-0.5,2.6c0.1,0.1,0.4,0.4,0.4,0.4c0.7,0.7,1.5,1.4,2.3,1.6c-0.3,0.1-0.7,0.3-1.1,0.4
		c0.5,0.5,1.4,0.7,2,1.2c-0.5,0.1-0.6,0.4-1.1,0.4c1.1,0.8,2,0.8,2.6,0.9c0.2,0,1,0.1,1.4,0c0.5-0.1,1.1,0.1,1.4,0.3L80.4,57
		l-0.7,0.1l1.8-2.1L81,57.8l-0.3-0.6l-5.9,11.9c0.1,0.1,0.2,0.3,0.2,0.5h0.1l0.2-0.2l0,0l9.5-7.5l-0.7-0.2l2.6-1.1L85,62.9v-0.7
		l-9.4,7.4c0.2,0.1,0.5,0.1,0.5,0.2c0.2,0.2,0.1,0.4-0.1,0.8c-0.1,0.4-0.2,0.6-0.5,0.6c-0.1,0-0.2,0-0.4-0.1
		c0.1,0.1,0.1,0.1,0.2,0.2c0.1,0.1,0.1,0.3-0.2,0.7c-0.3,0.4-0.6,0.5-0.8,0.4c-0.1-0.1-0.2-0.2-0.2-0.2c0.1,0.1,0.1,0.2,0.1,0.3
		c0.1,0.4-0.2,0.5-0.5,0.6c-0.7,0.2-1,0.1-1.1-0.1c-0.3-0.5-0.1-1.1,0.1-1.2c-0.1,0.2-0.1,0.4,0,0.7c0.1,0.2,0.1,0.5,0.5,0.5
		c0.2,0,0.5-0.1,0.7-0.2c0.1-0.1,0.2-0.4,0.1-0.5c-0.1-0.1-0.1-0.2-0.2-0.4c0.2,0.1,0.4,0.2,0.5,0.3c0.2,0.1,0.4,0.2,0.5,0
		c0.2-0.2,0.3-0.4,0.4-0.5c0.2-0.4-0.3-0.6-0.5-0.7c0.4,0,0.5,0.2,0.9,0.1c0.4-0.1,0.5-0.6,0.5-0.8c0-0.1-0.2-0.3-0.4-0.4
		c-0.1-0.1-0.4-0.1-0.5-0.1c0,0.1,0,0.1,0,0.1c-0.1,0.2-0.1,0.4-0.4,0.5c-0.2,0.1-0.3,0.1-0.1-0.1s0.3-0.8-0.1-1.1
		c-0.2-0.2-0.7-0.4-1.1-0.4c-0.5,0-1.2,0.1-1.6,0.1c-0.4-0.1-0.5,0.4-0.6,0.6c-0.1,0.4-0.2,1-0.9,0.7c-0.8-0.4-1.8-0.4-3.1-0.9
		c0.2,0.4,0.1,0.7,0.3,1.1c-1.1-0.3-1.4-0.8-2.4-1.2c0.2,0.4,0.1,0.7,0.4,1.1c-0.9-0.2-1.7-1-3-1.3c-0.1,0-0.1,0-0.1,0.1
		c-0.5,0.1-0.9,0.2-1.2,0.4c0.9,1,1.6,2.2,2,3.7c0,0-0.6,0-1.5-0.3c0.2,0.8,0.4,1.7,0.4,2.6c0,0-0.7-0.1-1.7-0.7
		c0.1,0.9,0.1,1.8-0.1,2.7c0,0-0.8-0.4-1.8-1.3c-0.1,0.9-0.4,1.8-0.7,2.7c0,0-0.7-0.5-1.5-1.7c-0.3,0.9-0.8,1.8-1.4,2.7
		c0,0-0.8-0.8-1.4-2.6c-0.7,1.1-1.4,1.5-1.4,1.5c-0.4-0.9-0.6-1.8-0.7-2.7c-1,1-1.8,1.3-1.8,1.3c-0.2-1-0.2-1.8-0.1-2.7
		c-1,0.6-1.7,0.7-1.7,0.7c0-1,0.2-1.8,0.4-2.6c-0.9,0.3-1.5,0.3-1.5,0.3c0.4-1.5,1.3-3.1,2-3.7l0,0c-0.3-0.1-0.7-0.2-1.1-0.3
		c-0.1,0-0.1,0-0.1-0.1c-1.2,0.4-2.1,1.1-3,1.3c0.2-0.4,0.2-0.7,0.4-1.1c-1.1,0.4-1.4,1-2.4,1.2c0.2-0.4,0.1-0.8,0.3-1.1
		c-1,0.5-2.4,0.8-3.1,1c-0.7,0.1-0.7-0.9-1-1.1c-0.1-0.1-0.7-0.1-0.9-0.1c-0.4,0.1-1,0-1.5,0s-0.8,0.1-1.1,0.4
		c-0.4,0.2-0.2,1-0.1,1.1c0.2,0.1,0.1,0.1-0.1,0.1c-0.3-0.2-0.4-0.4-0.4-0.5v-0.1c-0.1,0-0.4,0-0.5,0c-0.2,0.1-0.4,0.2-0.4,0.3
		c0,0.2,0.1,0.8,0.5,0.8c0.4,0.1,0.4-0.1,0.9-0.1c-0.2,0.1-0.7,0.4-0.5,0.7c0.1,0.1,0.2,0.3,0.4,0.5c0.1,0.2,0.4,0.1,0.5,0
		c0.2-0.1,0.3-0.2,0.5-0.3c-0.1,0.1-0.2,0.2-0.2,0.4c-0.1,0.2-0.1,0.5,0.1,0.5c0.2,0.1,0.5,0.2,0.7,0.2c0.4,0.1,0.4-0.2,0.5-0.5
		c0.1-0.2,0.1-0.4,0-0.6c0.2,0.1,0.4,0.7,0.1,1.2c-0.2,0.2-0.5,0.3-1.1,0.1c-0.4-0.1-0.6-0.2-0.5-0.6c0-0.1,0.1-0.2,0.1-0.3
		c-0.1,0.1-0.1,0.2-0.2,0.2c-0.2,0.1-0.5,0-0.8-0.4c-0.4-0.4-0.2-0.6-0.2-0.7c0.1-0.1,0.1-0.2,0.2-0.2c-0.2,0.1-0.3,0.1-0.4,0.1
		c-0.3-0.1-0.4-0.2-0.5-0.7c-0.1-0.5-0.2-0.6,0-0.8c0.1-0.2,0.8-0.3,1.2-0.2c0-0.2,0.1-0.5,0.4-0.7c0.2-0.2,1-0.5,1.5-0.4
		c0.5,0.1,1.2,0,1.4,0c0.2,0,1.8-0.3,2.9-1.1c-0.5,0.1-0.7-0.3-1.1-0.4c0.6-0.6,1.5-0.7,2-1.2c-0.4-0.1-0.8-0.4-1.1-0.4
		c1-0.5,1.5-0.8,2.2-1.5c0,0,0.2-0.3,0.4-0.4c-0.3-0.8-0.5-1.7-0.5-2.6c0-0.2-0.1-0.5-0.1-0.7c-0.2,0.2-0.7,0.5-1.5,0.8
		c-0.4-0.9-0.2-2.5,0.3-3.7c-0.7,1.3-1.4,2.1-2.7,2.5c-0.3-1-0.1-2.6,0.3-3.8c-0.8,1.4-1.7,2.1-3.2,2.6c-0.1-1.1,0-2.7,0.5-4
		c-1.1,1.1-2.1,1.5-3.4,1.7c-0.1-1.4,0.2-2.6,1-4.1c-0.8,1-2.6,1.7-3.8,1.8c0.1-1.2,1-2.8,1.4-3.7c-1.2,0.9-2.5,1.5-3.9,1.6
		c0.2-1.3,0.8-2.8,1.8-3.9c-1.2,0.9-3,1.4-4.5,1.2c0.4-1.5,1.2-2.9,2.4-3.7c-0.7,0.1-2,0.4-3.4,0.3c-0.9,2.9-1.4,5.9-1.4,9.2
		c-0.7-0.6-1.2-0.7-1.7-1.2c0.1,0.7,0.2,1.1,0.2,1.9c0.1,1.5,0.7,2.4,1.7,3c0.1,0.4,0.1,0.9,0.2,1.3c-0.7-0.5-1.7-0.7-2.9-0.7
		c0.8,2.5,1.8,2.7,3.3,2.9c0.1,0.2,0.1,0.5,0.2,0.7c-0.8-0.2-1.7-0.2-2.8,0.1c0.7,1.1,1.8,1.8,3.4,2.1l0,0c-1-0.1-2.1,0.1-3,0.5
		c1.2,1.1,2.4,1.5,3.6,1.4c0.1,0.2,0.1,0.3,0.2,0.5c-0.9,0.2-1.7,0.7-2.2,1.2c1,0.3,2,0.5,2.9,0.4c0,0,0,0.1,0.1,0.1
		c-0.5,0.4-1,1.1-1.2,2.1c0.7-0.2,1.4-0.2,2.1-0.4c0.1,0.2,0.3,0.5,0.4,0.8c-0.4,0.7-0.5,1.6-0.3,2.6c0.6-0.1,1.1-0.4,1.5-0.7
		c0.1,0.2,0.3,0.4,0.4,0.6c-0.1,1.1,0.1,2.3,0.8,3c0.3-0.3,0.5-0.6,0.7-0.9c1.5-2.3,0.6-3.9,0.6-5.3c0,0,0-0.1,0.1-0.1
		c0.1,1.7,1.6,3.4-0.1,5.5c-0.1,0.1-0.1,0.1-0.1,0.1c5.9,6.9,14.7,11.3,24.5,11.3c14,0,25.8-8.8,30.4-21.2l1.5-0.7l-0.1,0.7l2.1-1.8
		l-2.7,0.6l0.6,0.3l-1.1,0.5c0.2-0.6,0.4-1.1,0.5-1.7l1.6-0.9l-0.1,0.7l2-2l-2.7,0.8l0.6,0.2L86,63.7c0.2-0.7,0.3-1.2,0.5-1.9
		l1.2-0.8l-0.1,0.7L89.8,59.8L89.8,59.8z"/>
	<path class="st1" d="M75,70.1c0.1,0,0.3,0,0.5,0.1s0.4,0.2,0.4,0.4s-0.1,0.8-0.5,0.8c-0.4,0.1-0.4-0.1-0.9-0.1
		c0.2,0.1,0.7,0.4,0.5,0.7c-0.1,0.1-0.2,0.3-0.4,0.5c-0.1,0.2-0.4,0.1-0.5,0c-0.2-0.1-0.3-0.2-0.5-0.3c0.1,0.1,0.2,0.2,0.2,0.4
		c0.1,0.2,0.1,0.5-0.1,0.5c-0.2,0.1-0.5,0.2-0.7,0.2c-0.4,0.1-0.4-0.3-0.5-0.5c-0.1-0.2-0.1-0.4,0-0.7c-0.2,0.1-0.4,0.7-0.1,1.2
		c0.2,0.2,0.5,0.3,1.1,0.1c0.4-0.1,0.6-0.2,0.5-0.6c0-0.1-0.1-0.2-0.1-0.3c0.1,0.1,0.1,0.2,0.2,0.2c0.2,0.1,0.5,0,0.8-0.4
		c0.4-0.4,0.3-0.6,0.2-0.7c-0.1-0.1-0.1-0.2-0.2-0.2c0.2,0.1,0.3,0.1,0.4,0.1c0.3-0.1,0.4-0.2,0.5-0.6c0.1-0.4,0.2-0.6,0.1-0.8
		c-0.1-0.1-0.3-0.2-0.5-0.2l9.4-7.4V63l1.7-2.3l-2.6,1.1l0.7,0.2l-9.5,7.5l0,0L75,69.8c0,0,0,0-0.1,0"/>
	<polyline class="st1" points="74.8,69.3 80.8,57.3 81.1,57.9 81.6,55.2 79.8,57.3 80.4,57.2 74.6,69 	"/>
	<path class="st1" d="M73.4,70.6c0.2,0.3,0.2,0.8,0.1,1.1c0.6-0.1,0.7-0.7,0.8-1C74.1,70.5,73.6,70.5,73.4,70.6L73.4,70.6z"/>
	<path class="st1" d="M73.3,70.6c-0.4,0-0.5-0.2-0.6-0.4c-0.1-0.2-0.2-0.3-0.2,0c0,0.2,0,0.4,0.1,0.5C72.7,70.8,73,70.8,73.3,70.6
		L73.3,70.6z"/>
	<path class="st1" d="M73.3,71.8c-0.1-0.2-0.2-0.4-0.2-0.5c-0.1,0.1-0.2,0.6-0.2,1c0,0.1,0,0.1,0.2,0.1s0.4-0.1,0.6-0.2
		C73.5,72,73.4,72,73.3,71.8L73.3,71.8z"/>
	<path class="st1" d="M80.5,59.3l0.7-0.1l-3.7,5.6c-0.4,0.9-0.8,1.7-1.2,2.5l0.1-0.1l5.2-7.8l0.2,0.6l0.9-2.7L80.5,59.3L80.5,59.3z"
		/>
	<path class="st1" d="M79.1,64.2l6.7-8.4l0.2,0.7l1.1-2.6l-2.3,1.7h0.7l-6.1,7.7c-0.5,0.7-1,1.5-1.4,2.2l0,0
		C78.3,65,78.7,64.6,79.1,64.2L79.1,64.2z"/>
	<path class="st1" d="M78.3,66.7c0.5-0.4,1.1-0.9,1.7-1.4l5.6-5.2l0.1,0.7l1.5-2.4l-2.5,1.3l0.7,0.1l-5.6,5.2
		C79.2,65.7,78.7,66.2,78.3,66.7L78.3,66.7z"/>
	<path class="st1" d="M84.5,65.5l-7.8,3.9c-0.1,0.1-0.2,0.2-0.3,0.2c0.1,0.1,0.1,0.1,0.1,0.1s0,0.1,0.1,0.1l8.1-4.1l-0.1,0.7
		l2.1-1.8l-2.7,0.6L84.5,65.5L84.5,65.5z"/>
	<path class="st1" d="M72.6,73.8c-0.1-0.1-0.2-0.1-0.3-0.2l-1.4,2.9l0,0l-0.5,0.2l-1.7,3.2l0.8-0.2l0.3,0.8l1.5-3.2l-0.2-0.5
		L72.6,73.8L72.6,73.8z"/>
	<path class="st1" d="M78.1,68.3c0.5-0.3,1.1-0.6,1.8-0.9l5.2-3.4L85,64.6l1.9-2.1l-2.7,0.9l0.6,0.2l-5.6,3.7
		C78.8,67.7,78.5,68,78.1,68.3L78.1,68.3z"/>
	<path class="st1" d="M72,73c-0.1-0.2-0.1-0.3-0.1-0.5l-1.8,2l-0.5,0.1l-0.1,0.1l0,0l-2.6,2.6H67l0,0H67l0.7-0.1l0.1,0.7l2.1-2.8
		l0.4-0.1L72,73L72,73z"/>
	<path class="st1" d="M75.4,69c0.2-0.2,0.5-0.4,1-0.8l9.2-10l0.1,0.7l1.3-2.5l-2.4,1.5l0.7,0.1l-9.6,10.5
		C75.6,68.7,75.5,68.8,75.4,69L75.4,69z"/>
	<path class="st1" d="M67.2,75.8l3.4-2.4c0.4-0.4,0.8-0.9,1-1.1l-4.3,2.8l0,0L66.7,75l-0.3,0.2l-2.7,1.7l0.8,0.2l0.1,0.6l2.2-1.9
		H67.2L67.2,75.8z"/>
	<path class="st1" d="M64.4,76.1l1.4-0.8l1.2-0.9l0.4,0.1c0,0,3.1-1.9,3.9-2.4c0.1,0,0.1-0.1,0.1-0.1l0,0l0,0l-4.1,2l-0.5-0.2
		l-3.3,1.5l0.7,0.2L64.4,76.1L64.4,76.1z"/>
	<path class="st1" d="M34.7,70.1c-0.4-0.1-1.1,0.1-1.2,0.2c-0.2,0.2-0.1,0.4,0,0.8c0.1,0.4,0.2,0.6,0.5,0.7c0.1,0,0.2,0.1,0.4-0.1
		c-0.1,0.1-0.1,0.1-0.2,0.2c-0.1,0.1-0.1,0.3,0.2,0.7c0.3,0.4,0.6,0.5,0.8,0.4c0.1-0.1,0.2-0.2,0.2-0.2c-0.1,0.1-0.1,0.2-0.1,0.3
		c-0.1,0.4,0.2,0.5,0.5,0.6c0.7,0.2,1,0.2,1.1-0.1c0.4-0.5,0.2-1.1-0.1-1.2c0.1,0.2,0.1,0.4,0,0.6c-0.1,0.2-0.1,0.5-0.5,0.5
		c-0.2,0-0.5-0.1-0.7-0.2c-0.1-0.1-0.1-0.4-0.1-0.5c0.1-0.1,0.1-0.2,0.2-0.4c-0.2,0.1-0.4,0.2-0.5,0.3c-0.2,0.1-0.4,0.2-0.5,0
		c-0.2-0.2-0.3-0.4-0.4-0.5c-0.2-0.4,0.3-0.6,0.5-0.7c-0.4,0-0.5,0.2-0.9,0.1c-0.4-0.1-0.5-0.7-0.5-0.8c0-0.1,0.2-0.3,0.4-0.3
		c0.2-0.1,0.4,0,0.5,0"/>
	<path class="st1" d="M26.6,66.4C26.6,66.4,26.6,66.4,26.6,66.4c-1-0.6-1.7-0.8-3-0.6C24.8,65.9,25.7,66,26.6,66.4L26.6,66.4z"/>
	<path class="st1" d="M27.2,73.3c0.1-1,0.8-2.1,1.7-2.8c0.7-0.5,1-0.7,0.5-0.2C28.5,71.1,27.6,72.5,27.2,73.3L27.2,73.3z"/>
	<path class="st1" d="M29.2,75.8c-0.4-0.9-0.1-2.3,0.4-3.2c0.2-0.7,0.9-1.6,1.1-1.7C29.9,72,29.1,74.9,29.2,75.8L29.2,75.8z"/>
	<path class="st1" d="M26.3,63.5c-0.1-0.4-0.4-0.5-0.7-0.5c-0.4,0.1-0.5,0.4-0.5,0.7c0.1,0.4,0.4,0.5,0.7,0.5
		C26.1,64.1,26.3,63.8,26.3,63.5L26.3,63.5z"/>
	<path class="st1" d="M31.6,64.3c0-1-0.1-1.9,0-3c-1.8,1.4-2.5,3.7-1.7,5.3c-0.1,0-0.2,0-0.2,0c-0.4,0.1-0.6,0.4-0.5,0.8
		c0.1,0.4,0.4,0.6,0.8,0.5c0.4-0.1,0.6-0.4,0.5-0.8c-0.1-0.2-0.1-0.3-0.3-0.4c-0.3-1.4-0.1-3.3,0.7-4c-0.2,0.9-0.7,2.8-0.4,4.6
		c0.3-0.4,0.5-0.7,0.7-1c0.1,0.3,0.1,0.6,0.2,0.9c0.1-1.4,0.5-2.8,2-3.7c-1.1,1.4-1.7,2.9-1.8,4.1c0.8-1,2.6-1.2,2.7-5.1
		C33.3,62.7,32.2,63.3,31.6,64.3L31.6,64.3z"/>
	<path class="st1" d="M32.8,68.3c-0.1-0.4-0.4-0.6-0.8-0.5c-0.4,0.1-0.6,0.4-0.5,0.8s0.4,0.6,0.8,0.5C32.7,69,32.9,68.6,32.8,68.3
		L32.8,68.3z"/>
	<path class="st1" d="M32.6,70.3c-0.1-0.4-0.4-0.6-0.8-0.5c-0.4,0.1-0.6,0.4-0.5,0.8c0.1,0.4,0.4,0.6,0.8,0.5
		C32.5,71,32.7,70.6,32.6,70.3L32.6,70.3z"/>
	<path class="st1" d="M28.7,60.4c-1.4,1.1-1.7,2.6-1.6,3.8c-0.1,0-0.1,0-0.2,0c-0.3,0.1-0.5,0.4-0.4,0.6c0.1,0.3,0.4,0.5,0.6,0.4
		c0.1,0,0.1-0.1,0.2-0.1c0.1,0.4,0.3,0.7,0.5,1c-0.1-0.4-0.2-0.9-0.2-1.4c0-0.1,0-0.1,0-0.2c0,0,0,0,0-0.1c-0.1-1.1,0.1-2.1,0.7-3
		c-0.2,1.2-0.5,3.4-0.2,4.8C28.5,65,30.6,64.3,28.7,60.4L28.7,60.4z"/>
	<path class="st1" d="M34.2,69.2c-0.1-0.3-0.4-0.5-0.6-0.4c-0.3,0.1-0.5,0.4-0.4,0.6c0.1,0.3,0.4,0.5,0.6,0.4
		C34.1,69.8,34.2,69.5,34.2,69.2L34.2,69.2z"/>
	<path class="st1" d="M31.3,69.1c-0.1-0.2-0.3-0.4-0.5-0.4c-0.2,0.1-0.4,0.3-0.4,0.5c0.1,0.2,0.3,0.4,0.5,0.4
		C31.2,69.6,31.3,69.3,31.3,69.1L31.3,69.1z"/>
	<path class="st1" d="M24.7,62.5c-0.1-0.2-0.2-0.4-0.4-0.4c-0.7-0.9-1.7-1.9-3.3-2c0.9,0.4,2.2,1.2,3.1,2.1
		c-0.2,0.1-0.4,0.3-0.3,0.5c0.1,0.2,0.3,0.4,0.5,0.4C24.6,63,24.8,62.7,24.7,62.5L24.7,62.5z"/>
	<path class="st1" d="M24.7,59.4c-0.1-0.3-0.4-0.5-0.7-0.4c0,0,0,0-0.1,0c-0.4-1.4-0.7-2.6-2.3-3.7c0.8,1.1,1.8,2.6,2.3,3.7
		c-0.2,0.1-0.4,0.4-0.4,0.7s0.4,0.5,0.7,0.4C24.6,60,24.8,59.7,24.7,59.4L24.7,59.4z"/>
	<path class="st1" d="M26.4,65.1c-0.1-0.2-0.3-0.4-0.5-0.4c-0.1,0-0.2,0.1-0.3,0.2c-1.4-1.2-2.4-1.2-3.2-1.3
		c0.5,0.2,2.1,0.7,3.1,1.4c-0.1,0.1-0.1,0.2-0.1,0.3c0.1,0.2,0.3,0.4,0.5,0.4C26.3,65.5,26.5,65.3,26.4,65.1L26.4,65.1z"/>
	<path class="st1" d="M27.6,66.8c-0.1-0.4-0.4-0.6-0.8-0.5c-0.4,0.1-0.6,0.4-0.5,0.8c0.1,0.4,0.4,0.6,0.8,0.5
		C27.5,67.6,27.7,67.2,27.6,66.8L27.6,66.8z"/>
	<path class="st1" d="M28.5,68c-0.1-0.2-0.3-0.4-0.5-0.4c-0.2,0-0.3,0.1-0.4,0.2c-1.2-0.2-2.6,0-3.7,0.7c1.3-0.3,2.6-0.6,3.7-0.6
		l0,0c0,0.1,0,0.1,0,0.2c0.1,0.2,0.3,0.4,0.5,0.4C28.4,68.4,28.6,68.2,28.5,68L28.5,68z"/>
	<path class="st1" d="M29.8,68.7c-0.1-0.3-0.4-0.5-0.7-0.5c-0.3,0.1-0.5,0.4-0.5,0.7c0,0,0,0-0.1,0c-1-0.1-2.4,0.2-3.4,1.3
		c1-0.6,2.5-1.1,3.4-1.3l0,0c0.1,0.3,0.4,0.5,0.7,0.4C29.7,69.3,29.9,69,29.8,68.7L29.8,68.7z"/>
	<path class="st1" d="M25.5,62.7c-0.2-1.1,0.4-3.9,1.4-4.4C26.2,59.6,26,60.8,25.5,62.7L25.5,62.7z M27.5,57.3c-2.1,0.9-3,3.5-2,5.4
		C26.5,61.4,28.3,61.1,27.5,57.3L27.5,57.3z"/>
	<path class="st1" d="M25.3,53.5c-0.7,0.3-1.6,1.2-2,2.4c0.2,0.2,0.3,0.4,0.4,0.6c0.2-0.9,0.7-2,1.2-2.4c-0.4,0.6-0.8,1.8-1,2.8
		c0.2,0.5,0.4,1.1,0.3,1.7C25.6,57.4,26,55.4,25.3,53.5L25.3,53.5z"/>
	<path class="st1" d="M37.9,71.6c2.6,2,4.2,4.8,4.5,7c-0.4-0.2-1-0.5-1.3-0.4c-0.4-2.3-1.5-4.2-3.5-5.8C37.7,72,37.8,71.8,37.9,71.6
		L37.9,71.6z"/>
	<path class="st1" d="M35.4,70.9c0.2-0.2,0.6-0.2,0.8-0.1c-0.2,0.3-0.2,0.8-0.1,1.1C35.6,71.8,35.5,71.2,35.4,70.9L35.4,70.9z"/>
	<path class="st1" d="M36.4,70.9c0.4,0,0.5-0.2,0.6-0.4c0.1-0.2,0.2-0.3,0.2,0c0,0.3,0,0.4-0.1,0.5C37,71,36.7,71.1,36.4,70.9
		L36.4,70.9z"/>
	<path class="st1" d="M36.6,71.5c-0.1,0.2-0.1,0.4-0.2,0.5c-0.1,0.1-0.2,0.2-0.3,0.3c0.2,0.1,0.4,0.2,0.6,0.2c0.2,0,0.2-0.1,0.2-0.1
		C36.8,72.1,36.7,71.6,36.6,71.5L36.6,71.5z"/>
</g>
</svg>
